<mxfile host="app.diagrams.net" modified="2024-05-06T15:35:16.092Z" agent="Mozilla/5.0 (Windows NT 10.0; Win64; x64) AppleWebKit/537.36 (KHTML, like Gecko) Chrome/124.0.0.0 Safari/537.36" version="24.2.3" etag="852GocQn_JXQoVYR4b6O" type="github">
  <diagram name="第 1 页" id="dR9ZaN-MY2cVakC-dKy4">
    <mxGraphModel>
      <root>
        <mxCell id="0" />
        <mxCell id="1" parent="0" />
      </root>
    </mxGraphModel>
  </diagram>
</mxfile>
